<?xml version="1.0" encoding="UTF-8"?>
<svg id="Layer_1" data-name="Layer 1" xmlns="http://www.w3.org/2000/svg" xmlns:xlink="http://www.w3.org/1999/xlink" viewBox="0 0 253.15 484.34">
  <defs>
    <style>
      .cls-1 {
        fill: url(#linear-gradient);
        stroke: #bf2b00;
        stroke-miterlimit: 10;
      }

      .cls-2 {
        fill: #945a00;
      }

      .cls-2, .cls-3, .cls-4 {
        stroke-width: 0px;
      }

      .cls-4 {
        fill: #a72c00;
      }
    </style>
    <linearGradient id="linear-gradient" x1="44.2" y1="220.53" x2="166.93" y2="220.53" gradientUnits="userSpaceOnUse">
      <stop offset="0" stop-color="#cd9700"/>
      <stop offset="1" stop-color="#eb3822"/>
    </linearGradient>
  </defs>
  <g>
    <path class="cls-4" d="m108.71,167.29c0-36,144-34,144-71l.14-56.91c0,37-144,35-144,71l-.14,56.91Z"/>
    <path class="cls-4" d="m109.01,316.77c0-36,144-34,144-71l.14-56.91c0,37-144,35-144,71l-.14,56.91Z"/>
    <path class="cls-1" d="m210.5,28.18v294.6c0,79.8-38.4,117.6-105,117.6S.5,400.18.5,337.78v-34.8l31.1,26.69,30.69-26.69v37.8c0,27,14.4,43.2,42.6,43.2,46.8,0,43.8-37.2,43.8-72.6V28.18L180.6.67l29.9,27.51Z"/>
    <path class="cls-2" d="m252.85,239.79c0-36-144-34-144-71l-.14-56.91c0,37,144,35,144,71l.14,56.91Z"/>
    <path class="cls-2" d="m253.15,389.26c0-36-144-34-144-71l-.14-56.91c0,37,144,35,144,71l.14,56.91Z"/>
  </g>
  <g>
    <path class="cls-3" d="m46.88,451.36v23.57c0,6.38-3.07,9.41-8.4,9.41s-8.4-3.22-8.4-8.21v-2.78h4.94v3.02c0,2.16,1.15,3.46,3.41,3.46,3.74,0,3.5-2.98,3.5-5.81v-22.66h4.95Z"/>
    <path class="cls-3" d="m86.19,471.77c0,7.1-4.27,12.58-11.67,12.58s-11.67-5.47-11.67-12.58,4.37-12.34,11.67-12.34,11.67,5.04,11.67,12.34Zm-18.39.05c0,4.46,1.54,8.83,6.72,8.83s6.72-4.37,6.72-8.83-1.78-8.69-6.72-8.69-6.72,4.22-6.72,8.69Z"/>
    <path class="cls-3" d="m108.99,479.83h.1l6.77-19.97h5.47l-8.74,24.05h-7.06l-8.74-24.05h5.47l6.72,19.97Z"/>
    <path class="cls-3" d="m148.02,459.86v24.05h-4.94v-19.54h-7.73v-4.51h12.67Zm0-10.9v6.1h-6.82v-6.1h6.82Z"/>
    <path class="cls-3" d="m182.53,481.61c-1.87,1.78-4.42,2.74-6.96,2.74-4.66,0-8.64-2.54-8.64-7.44,0-6.24,5.86-8.11,11.14-8.11h4.46v-.86c0-2.74-.38-4.75-4.46-4.75-2.54,0-5.14.38-5.14,2.74h-4.94c.34-5.33,5.42-6.48,9.84-6.48,6.96,0,9.65,2.45,9.65,9.5v14.98h-4.94v-2.3Zm-5.14-9.07c-2.69,0-5.52,1.01-5.52,4.18,0,2.5,1.78,3.89,4.18,3.89,4.37,0,6.48-3.31,6.48-7.25v-.82h-5.14Z"/>
    <path class="cls-3" d="m206.96,462.55h.1c1.54-2.02,4.66-3.12,7.3-3.12,5.71,0,9.17,3.79,9.17,9.36v15.12h-4.94v-15.46c0-3.17-1.44-4.9-4.75-4.9-4.85,0-6.86,3.31-6.86,7.83v12.53h-4.94v-24.05h4.94v2.69Z"/>
  </g>
</svg>